HIERARCHY
ROOT root
{
	OFFSET 0.0000 0.0000 0.0000
	CHANNELS 6 Xposition Yposition Zposition Zrotation Xrotation Yrotation
	JOINT rfemur
	{
		OFFSET -8.5590 -9.8555 2.1513
		CHANNELS 3 Zrotation Xrotation Yrotation
		JOINT rtibia
		{
			OFFSET -7.2751 -41.2593 0.0000
			CHANNELS 3 Zrotation Xrotation Yrotation
			JOINT rfoot
			{
				OFFSET -6.5686 -37.2525 -0.0000
				CHANNELS 3 Zrotation Xrotation Yrotation
				JOINT rtoes
				{
					OFFSET 3.2326 -4.1860 10.4122
					CHANNELS 3 Zrotation Xrotation Yrotation
					End Site
					{
						OFFSET 0.0000 0.0000 0.0000
					}
				}
			}
		}
	}
	JOINT lfemur
	{
		OFFSET 8.5590 -9.8555 2.1513
		CHANNELS 3 Zrotation Xrotation Yrotation
		JOINT ltibia
		{
			OFFSET 7.2751 -41.2593 0.0000
			CHANNELS 3 Zrotation Xrotation Yrotation
			JOINT lfoot
			{
				OFFSET 6.5686 -37.2525 -0.0000
				CHANNELS 3 Zrotation Xrotation Yrotation
				JOINT ltoes
				{
					OFFSET 3.2326 -4.1860 10.4122
					CHANNELS 3 Zrotation Xrotation Yrotation
					End Site
					{
						OFFSET -0.0000 -0.0000 0.0000
					}
				}
			}
		}
	}
	JOINT lowerback
	{
		OFFSET 0.0000 0.0000 0.0000
		CHANNELS 3 Zrotation Xrotation Yrotation
		JOINT upperback
		{
			OFFSET 0.0000 11.0962 -0.4289
			CHANNELS 3 Zrotation Xrotation Yrotation
			JOINT thorax
			{
				OFFSET 0.0000 11.0405 -0.3169
				CHANNELS 3 Zrotation Xrotation Yrotation
				JOINT neck
				{
					OFFSET 0.0000 11.1642 0.0841
					CHANNELS 3 Zrotation Xrotation Yrotation
					JOINT head
					{
						OFFSET 0.0000 15.5530 -0.6089
						CHANNELS 3 Zrotation Xrotation Yrotation
						End Site
						{
							OFFSET -0.0000 0.0000 0.0000
						}
					}
				}
			}
		}
	}
}
MOTION
Frames: 12
Frame Time: 0.008333
0.0000 214.9078 948.0119 0.0000 0.0000 0.0000 0.0000 -33.5690 0.0000 0.0000 -0.0000 0.0000 0.0000 0.0000 0.0000 0.0000 0.0000 0.0000 0.0000 3.0055 0.0000 0.0000 0.0000 0.0000 0.0000 0.0000 0.0000 0.0000 0.0000 0.0000 0.0000 -12.0355 0.0000 0.0000 -1.5100 0.0000 0.0000 14.9700 0.0000 0.0000 0.0000 0.0000 0.0000 0.0000 0.0000 
0.0000 214.8222 949.4479 0.0000 0.0000 0.0000 0.0000 -33.1865 0.0000 0.0000 -0.0000 0.0000 0.0000 0.0000 0.0000 0.0000 0.0000 0.0000 0.0000 3.8298 0.0000 0.0000 0.0000 0.0000 0.0000 0.0000 0.0000 0.0000 0.0000 0.0000 0.0000 -12.2165 0.0000 0.0000 -1.5100 0.0000 0.0000 14.9700 0.0000 0.0000 0.0000 0.0000 0.0000 0.0000 0.0000 
0.0000 214.7115 950.9325 0.0000 0.0000 0.0000 0.0000 -32.7054 0.0000 0.0000 -0.0000 0.0000 0.0000 0.0000 0.0000 0.0000 0.0000 0.0000 0.0000 4.6827 0.0000 0.0000 0.0000 0.0000 0.0000 0.0000 0.0000 0.0000 0.0000 0.0000 0.0000 -12.4166 0.0000 0.0000 -1.5100 0.0000 0.0000 14.9700 0.0000 0.0000 0.0000 0.0000 0.0000 0.0000 0.0000 
0.0000 214.5741 952.4653 0.0000 0.0000 0.0000 0.0000 -32.1244 0.0000 0.0000 -0.0000 0.0000 0.0000 0.0000 0.0000 0.0000 0.0000 0.0000 0.0000 5.5645 0.0000 0.0000 0.0000 0.0000 0.0000 0.0000 0.0000 0.0000 0.0000 0.0000 0.0000 -12.6360 0.0000 0.0000 -1.5100 0.0000 0.0000 14.9700 0.0000 0.0000 0.0000 0.0000 0.0000 0.0000 0.0000 
0.0000 214.7121 953.7100 0.0000 0.0000 0.0000 0.0000 -31.5080 0.0000 0.0000 0.0000 0.0000 0.0000 0.0000 0.0000 0.0000 0.0000 0.0000 0.0000 5.9108 0.0000 0.0000 0.0222 0.0000 0.0000 0.0000 0.0000 0.0000 0.0000 0.0000 0.0000 -12.7804 0.0000 0.0000 -1.5100 0.0000 0.0000 14.9700 0.0000 0.0000 0.0000 0.0000 0.0000 0.0000 0.0000 
0.0000 215.2086 954.5288 0.0000 0.0000 0.0000 0.0000 -30.9594 0.0000 0.0000 0.0000 0.0000 0.0000 0.0000 0.0000 0.0000 0.0000 0.0000 0.0000 5.4904 0.0000 0.0000 0.2334 0.0000 0.0000 0.0000 0.0000 0.0000 0.0000 0.0000 0.0000 -12.7997 0.0000 0.0000 -1.5100 0.0000 0.0000 14.9700 0.0000 0.0000 0.0000 0.0000 0.0000 0.0000 0.0000 
0.0000 215.6821 955.3265 0.0000 0.0000 0.0000 0.0000 -30.4278 0.0000 0.0000 0.0000 0.0000 0.0000 0.0000 0.0000 0.0000 0.0000 0.0000 0.0000 4.9825 0.0000 0.0000 0.6685 0.0000 0.0000 0.0000 0.0000 0.0000 0.0000 0.0000 0.0000 -12.8032 0.0000 0.0000 -1.5100 0.0000 0.0000 14.9700 0.0000 0.0000 0.0000 0.0000 0.0000 0.0000 0.0000 
0.0000 216.1335 956.1031 0.0000 0.0000 0.0000 0.0000 -29.9131 0.0000 0.0000 0.0000 0.0000 0.0000 0.0000 0.0000 0.0000 0.0000 0.0000 0.0000 4.3880 0.0000 0.0000 1.3242 0.0000 0.0000 0.0000 0.0000 0.0000 0.0000 0.0000 0.0000 -12.7912 0.0000 0.0000 -1.5100 0.0000 0.0000 14.9700 0.0000 0.0000 0.0000 0.0000 0.0000 0.0000 0.0000 
0.0000 216.5634 956.8577 0.0000 0.0000 0.0000 0.0000 -29.4155 0.0000 0.0000 0.0000 0.0000 0.0000 0.0000 0.0000 0.0000 0.0000 0.0000 0.0000 3.7056 0.0000 0.0000 2.2014 0.0000 0.0000 0.0000 0.0000 0.0000 0.0000 0.0000 0.0000 -12.7635 0.0000 0.0000 -1.5100 0.0000 0.0000 14.9700 0.0000 0.0000 0.0000 0.0000 0.0000 0.0000 0.0000 
0.0000 216.9721 957.5899 0.0000 0.0000 0.0000 0.0000 -28.9351 0.0000 0.0000 0.0000 0.0000 0.0000 0.0000 0.0000 0.0000 0.0000 0.0000 0.0000 2.9352 0.0000 0.0000 3.2980 0.0000 0.0000 0.0000 0.0000 0.0000 0.0000 0.0000 0.0000 -12.7200 0.0000 0.0000 -1.5100 0.0000 0.0000 14.9700 0.0000 0.0000 0.0000 0.0000 0.0000 0.0000 0.0000 
0.0000 217.3607 958.2996 0.0000 0.0000 0.0000 0.0000 -28.4715 0.0000 0.0000 0.0000 0.0000 0.0000 0.0000 0.0000 0.0000 0.0000 0.0000 0.0000 2.0786 0.0000 0.0000 4.6061 0.0000 0.0000 0.0000 0.0000 0.0000 0.0000 0.0000 0.0000 -12.6611 0.0000 0.0000 -1.5100 0.0000 0.0000 14.9700 0.0000 0.0000 0.0000 0.0000 0.0000 0.0000 0.0000 
0.0000 217.7296 958.9861 0.0000 0.0000 0.0000 0.0000 -28.0250 0.0000 0.0000 0.0000 0.0000 0.0000 0.0000 0.0000 0.0000 0.0000 0.0000 0.0000 1.1353 0.0000 0.0000 6.1232 0.0000 0.0000 0.0000 0.0000 0.0000 0.0000 0.0000 0.0000 -12.5865 0.0000 0.0000 -1.5100 0.0000 0.0000 14.9700 0.0000 0.0000 0.0000 0.0000 0.0000 0.0000 0.0000 
